<svg xmlns="http://www.w3.org/2000/svg" viewBox="0 0 64 64" id="search">
  <path d="M37 55a18 18 0 1 1 18-18 18.02 18.02 0 0 1-18 18Zm0-34a16 16 0 1 0 16 16 16.018 16.018 0 0 0-16-16Z"></path>
  <path d="M37 51a14 14 0 1 1 14-14 14.016 14.016 0 0 1-14 14zm0-26a12 12 0 1 0 12 12 12.013 12.013 0 0 0-12-12zm13.59 26.59a.997.997 0 0 1-.707-.293l-1.57-1.57a1 1 0 0 1 1.414-1.414l1.57 1.57a1 1 0 0 1-.707 1.707z"></path>
  <path d="M56.462 60.101c-.056 0-.111-.001-.168-.004a3.75 3.75 0 0 1-2.704-1.342l-3.85-4.623a3.19 3.19 0 0 1 4.493-4.494l4.622 3.85a3.738 3.738 0 0 1 .251 5.518 3.748 3.748 0 0 1-2.644 1.095zm-4.272-9.205a1.193 1.193 0 0 0-.914 1.956l3.851 4.623a1.739 1.739 0 0 0 2.565.117 1.739 1.739 0 0 0-.116-2.566l-4.623-3.851a1.19 1.19 0 0 0-.763-.279zM17.46 45.67H8.37A4.355 4.355 0 0 1 4 41.34V15.76a2.117 2.117 0 0 1 2.12-2.11H9.5a1 1 0 0 1 0 2H6.12a.116.116 0 0 0-.12.11v25.58a2.353 2.353 0 0 0 2.37 2.33h9.09a1 1 0 1 1 0 2zm39.13-.14a1 1 0 0 1-.282-1.96A2.35 2.35 0 0 0 58 41.34V15.76a.116.116 0 0 0-.12-.11H54.5a1 1 0 0 1 0-2h3.38A2.117 2.117 0 0 1 60 15.76v25.58a4.363 4.363 0 0 1-3.128 4.15 1.012 1.012 0 0 1-.282.04zM32.23 15.65h-.46a1 1 0 0 1 0-2h.46a1 1 0 0 1 0 2z"></path>
  <path d="M16.27 41.36q-.038 0-.076-.003a49.627 49.627 0 0 0-3.343-.127A4.383 4.383 0 0 1 8.5 36.89V12.46a2.105 2.105 0 0 1 2.047-2.11 58.087 58.087 0 0 1 21.793 3.44 1 1 0 0 1 .66.94v1.88a1 1 0 0 1-2 0v-1.173a56.08 56.08 0 0 0-20.388-3.087.107.107 0 0 0-.112.11v24.43a2.376 2.376 0 0 0 2.371 2.34c1.358.013 2.43.054 3.474.133a1 1 0 0 1-.074 1.997zM54.5 26.41a1 1 0 0 1-1-1V12.46a.108.108 0 0 0-.113-.11 58.133 58.133 0 0 0-6.673.176 1 1 0 0 1-.168-1.993 60.463 60.463 0 0 1 6.903-.182A2.106 2.106 0 0 1 55.5 12.46v12.95a1 1 0 0 1-1 1z"></path>
  <path d="M32 17.61a1 1 0 0 1-1-1v-1.88a1 1 0 1 1 2 0v1.88a1 1 0 0 1-1 1Z"></path>
  <path d="M46.63 19.35a1 1 0 0 1-1-1V6.12a.115.115 0 0 0-.059-.1.11.11 0 0 0-.113-.011 38.912 38.912 0 0 0-7.717 4.835A52.425 52.425 0 0 0 33 15.137v1.473a1 1 0 0 1-2 0v-1.88a.998.998 0 0 1 .281-.695 54.762 54.762 0 0 1 5.216-4.758 40.964 40.964 0 0 1 8.121-5.084A2.126 2.126 0 0 1 47.63 6.12v12.23a1 1 0 0 1-1 1Z"></path>
</svg>
